{
  "accessors": [
    {
      "bufferView": 2,
      "componentType": 5126,
      "count": 1520,
      "max": [
        0.6512966752052307,
        0.40947431325912476,
        0.7190690636634827
      ],
      "min": [
        -0.6530728340148926,
        -0.37749597430229187,
        -0.010938095860183239
      ],
      "type": "VEC3"
    },
    {
      "bufferView": 2,
      "byteOffset": 18240,
      "componentType": 5126,
      "count": 1520,
      "max": [
        1.0,
        1.0,
        1.0
      ],
      "min": [
        -1.0,
        -1.0,
        -1.0
      ],
      "type": "VEC3"
    },
    {
      "bufferView": 3,
      "componentType": 5126,
      "count": 1520,
      "max": [
        1.0,
        1.0,
        0.9983305931091309,
        1.0
      ],
      "min": [
        -0.9999999403953552,
        -1.0,
        -1.0,
        -1.0
      ],
      "type": "VEC4"
    },
    {
      "bufferView": 1,
      "componentType": 5126,
      "count": 1520,
      "max": [
        0.998601496219635,
        0.9964107275009155
      ],
      "min": [
        0.006492385640740395,
        0.002374500036239624
      ],
      "type": "VEC2"
    },
    {
      "bufferView": 0,
      "componentType": 5125,
      "count": 4872,
      "type": "SCALAR"
    },
    {
      "bufferView": 2,
      "byteOffset": 36480,
      "componentType": 5126,
      "count": 5184,
      "max": [
        0.22847585380077362,
        0.21204543113708496,
        0.05059414356946945
      ],
      "min": [
        -0.2950902283191681,
        -0.13545846939086914,
        -0.007122492417693138
      ],
      "type": "VEC3"
    },
    {
      "bufferView": 2,
      "byteOffset": 98688,
      "componentType": 5126,
      "count": 5184,
      "max": [
        1.0,
        1.0,
        1.0
      ],
      "min": [
        -1.0,
        -1.0,
        -0.9998233318328857
      ],
      "type": "VEC3"
    },
    {
      "bufferView": 3,
      "byteOffset": 24320,
      "componentType": 5126,
      "count": 5184,
      "max": [
        0.9977075457572937,
        0.9979008436203003,
        0.9998796582221985,
        1.0
      ],
      "min": [
        -0.9999999403953552,
        -0.999999463558197,
        -0.9995681643486023,
        1.0
      ],
      "type": "VEC4"
    },
    {
      "bufferView": 1,
      "byteOffset": 12160,
      "componentType": 5126,
      "count": 5184,
      "max": [
        0.9824153780937195,
        0.9999999403953552
      ],
      "min": [
        0.0,
        0.0
      ],
      "type": "VEC2"
    },
    {
      "bufferView": 0,
      "byteOffset": 19488,
      "componentType": 5125,
      "count": 13794,
      "type": "SCALAR"
    }
  ],
  "asset": {
    "extras": {
      "author": "bossdeff (https://sketchfab.com/bossdeff)",
      "license": "CC-BY-4.0 (http://creativecommons.org/licenses/by/4.0/)",
      "source": "https://sketchfab.com/3d-models/dirty-sci-fi-laptop-star-wars-5b4c6b94692643d9ad0ba61dcb4892dc",
      "title": "Dirty Sci-Fi Laptop (Star Wars)"
    },
    "generator": "Sketchfab-14.47.0",
    "version": "2.0"
  },
  "bufferViews": [
    {
      "buffer": 0,
      "byteLength": 74664,
      "name": "floatBufferViews",
      "target": 34963
    },
    {
      "buffer": 0,
      "byteLength": 53632,
      "byteOffset": 74664,
      "byteStride": 8,
      "name": "floatBufferViews",
      "target": 34962
    },
    {
      "buffer": 0,
      "byteLength": 160896,
      "byteOffset": 128296,
      "byteStride": 12,
      "name": "floatBufferViews",
      "target": 34962
    },
    {
      "buffer": 0,
      "byteLength": 107264,
      "byteOffset": 289192,
      "byteStride": 16,
      "name": "floatBufferViews",
      "target": 34962
    }
  ],
  "buffers": [
    {
      "byteLength": 396456,
      "uri": "Laptop.bin"
    }
  ],
  "images": [
    {
      "uri": "textures/Laptop_baseColor.png"
    },
    {
      "uri": "textures/Laptop_metallicRoughness.png"
    },
    {
      "uri": "textures/Laptop_emissive.png"
    },
    {
      "uri": "textures/Laptop_normal.png"
    },
    {
      "uri": "textures/Rubber_baseColor.png"
    },
    {
      "uri": "textures/Rubber_metallicRoughness.png"
    },
    {
      "uri": "textures/Rubber_emissive.png"
    },
    {
      "uri": "textures/Rubber_normal.png"
    }
  ],
  "materials": [
    {
      "doubleSided": true,
      "emissiveFactor": [
        1.0,
        1.0,
        1.0
      ],
      "emissiveTexture": {
        "index": 2
      },
      "name": "Laptop",
      "normalTexture": {
        "index": 3
      },
      "pbrMetallicRoughness": {
        "baseColorTexture": {
          "index": 0
        },
        "metallicRoughnessTexture": {
          "index": 1
        }
      }
    },
    {
      "doubleSided": true,
      "emissiveFactor": [
        1.0,
        1.0,
        1.0
      ],
      "emissiveTexture": {
        "index": 6
      },
      "name": "Rubber",
      "normalTexture": {
        "index": 7
      },
      "pbrMetallicRoughness": {
        "baseColorTexture": {
          "index": 4
        },
        "metallicRoughnessTexture": {
          "index": 5
        }
      }
    }
  ],
  "meshes": [
    {
      "name": "Cube_Laptop_0",
      "primitives": [
        {
          "attributes": {
            "NORMAL": 1,
            "POSITION": 0,
            "TANGENT": 2,
            "TEXCOORD_0": 3
          },
          "indices": 4,
          "material": 0,
          "mode": 4
        }
      ]
    },
    {
      "name": "keys.001_Rubber_0",
      "primitives": [
        {
          "attributes": {
            "NORMAL": 6,
            "POSITION": 5,
            "TANGENT": 7,
            "TEXCOORD_0": 8
          },
          "indices": 9,
          "material": 1,
          "mode": 4
        }
      ]
    }
  ],
  "nodes": [
    {
      "children": [
        1
      ],
      "matrix": [
        1.0,
        0.0,
        0.0,
        0.0,
        0.0,
        2.220446049250313e-16,
        -1.0,
        0.0,
        0.0,
        1.0,
        2.220446049250313e-16,
        0.0,
        0.0,
        0.0,
        0.0,
        1.0
      ],
      "name": "Sketchfab_model"
    },
    {
      "children": [
        2
      ],
      "matrix": [
        0.009999999776482582,
        0.0,
        0.0,
        0.0,
        0.0,
        0.0,
        0.009999999776482582,
        0.0,
        0.0,
        -0.009999999776482582,
        0.0,
        0.0,
        0.0,
        0.0,
        0.0,
        1.0
      ],
      "name": "f525b3af63b34a03a12c61af76473ea2.fbx"
    },
    {
      "children": [
        3,
        5
      ],
      "name": "RootNode"
    },
    {
      "children": [
        4
      ],
      "matrix": [
        100.0,
        0.0,
        0.0,
        0.0,
        0.0,
        -1.629206793918314e-05,
        -99.99999999999868,
        0.0,
        0.0,
        99.99999999999868,
        -1.629206793918314e-05,
        0.0,
        0.0,
        0.0,
        0.0,
        1.0
      ],
      "name": "Cube"
    },
    {
      "mesh": 0,
      "name": "Cube_Laptop_0"
    },
    {
      "children": [
        6
      ],
      "matrix": [
        248.60293579101563,
        0.0,
        0.0,
        0.0,
        0.0,
        -4.050255919787611e-05,
        -248.60293579101233,
        0.0,
        0.0,
        156.4872741699198,
        -2.5495013023939463e-05,
        0.0,
        0.0,
        0.0,
        0.0,
        1.0
      ],
      "name": "keys.001"
    },
    {
      "mesh": 1,
      "name": "keys.001_Rubber_0"
    }
  ],
  "samplers": [
    {
      "magFilter": 9729,
      "minFilter": 9987,
      "wrapS": 10497,
      "wrapT": 10497
    }
  ],
  "scene": 0,
  "scenes": [
    {
      "name": "Sketchfab_Scene",
      "nodes": [
        0
      ]
    }
  ],
  "textures": [
    {
      "sampler": 0,
      "source": 0
    },
    {
      "sampler": 0,
      "source": 1
    },
    {
      "sampler": 0,
      "source": 2
    },
    {
      "sampler": 0,
      "source": 3
    },
    {
      "sampler": 0,
      "source": 4
    },
    {
      "sampler": 0,
      "source": 5
    },
    {
      "sampler": 0,
      "source": 6
    },
    {
      "sampler": 0,
      "source": 7
    }
  ]
}
